<?xml version="1.0" standalone="no"?><!DOCTYPE svg PUBLIC "-//W3C//DTD SVG 1.1//EN" "http://www.w3.org/Graphics/SVG/1.1/DTD/svg11.dtd"><svg t="1618368121197" class="icon" viewBox="0 0 1024 1024" version="1.1" xmlns="http://www.w3.org/2000/svg" p-id="2188" xmlns:xlink="http://www.w3.org/1999/xlink" width="200" height="200"><defs><style type="text/css"></style></defs><path d="M938.666667 699.733333a16.827733 16.827733 0 0 1-6.365867-1.2288L512 529.544533l-420.3008 168.96A17.032533 17.032533 0 0 1 68.266667 682.666667V511.146667a17.066667 17.066667 0 0 1 10.752-15.854934l426.666666-169.813333a16.964267 16.964267 0 0 1 12.612267 0l426.666667 169.813333a17.066667 17.066667 0 0 1 10.752 15.854934V682.666667A17.032533 17.032533 0 0 1 938.666667 699.733333zM512 494.08c2.1504 0 4.317867 0.4096 6.365867 1.2288L921.6 657.425067v-134.690134l-409.6-163.037866-409.6 163.037866v134.690134l403.234133-162.0992A16.8448 16.8448 0 0 1 512 494.08z" p-id="2189" fill="#ffffff"></path></svg>