<?xml version="1.0" standalone="no"?><!DOCTYPE svg PUBLIC "-//W3C//DTD SVG 1.1//EN" "http://www.w3.org/Graphics/SVG/1.1/DTD/svg11.dtd"><svg t="1618905701477" class="icon" viewBox="0 0 1024 1024" version="1.1" xmlns="http://www.w3.org/2000/svg" p-id="9160" xmlns:xlink="http://www.w3.org/1999/xlink" width="200" height="200"><defs><style type="text/css"></style></defs><path d="M968.96 478.293333l-423.253333-423.253333a42.666667 42.666667 0 0 0-29.866667-12.373333h-7.68a42.666667 42.666667 0 0 0-29.866667 12.373333l-423.253333 423.253333a42.666667 42.666667 0 0 0-12.373333 29.866667v7.68a42.666667 42.666667 0 0 0 12.373333 29.866667l423.253333 423.253333a42.666667 42.666667 0 0 0 29.866667 12.373333h7.68a42.666667 42.666667 0 0 0 29.866667-12.373333l423.253333-423.253333a42.666667 42.666667 0 0 0 12.373333-29.866667v-7.68a42.666667 42.666667 0 0 0-12.373333-29.866667z m-206.933333 5.973334l-128 128A21.333333 21.333333 0 0 1 597.333333 597.333333v-85.333333H384v106.666667a21.333333 21.333333 0 0 1-21.333333 21.333333h-42.666667a21.333333 21.333333 0 0 1-21.333333-21.333333V469.333333a42.666667 42.666667 0 0 1 42.666666-42.666666h256V341.333333a21.333333 21.333333 0 0 1 36.266667-14.933333l128 128a21.76 21.76 0 0 1 0.426667 29.866667z" p-id="9161" fill="#244EE4"></path></svg>