<svg t="1618553206352" class="icon" viewBox="0 0 1024 1024" version="1.1" xmlns="http://www.w3.org/2000/svg" p-id="4011" width="200" height="200"><path d="M585.386667 256c-23.313067 0-43.52-8.533333-60.586667-25.6-16.503467-16.503467-24.746667-36.4032-24.746667-59.733333s8.2432-43.52 24.746667-60.586667c17.066667-16.503467 37.2736-24.746667 60.586667-24.746667 23.330133 0 43.229867 8.2432 59.733333 24.746667 17.066667 17.066667 25.6 37.256533 25.6 60.586667s-8.533333 43.229867-25.6 59.733333c-16.503467 17.066667-36.4032 25.6-59.733333 25.6z" p-id="4012" fill="#ffffff"></path><path d="M585.386667 273.066667c-27.904 0-52.343467-10.2912-72.6528-30.600534C492.987733 222.72 482.986667 198.570667 482.986667 170.666667c0-27.784533 9.949867-52.1728 29.5424-72.448C533.1968 78.216533 557.585067 68.266667 585.386667 68.266667c27.921067 0 52.0704 10.001067 71.799466 29.7472C677.4784 118.3232 687.786667 142.762667 687.786667 170.666667c0 28.023467-10.359467 52.241067-30.805334 72.004266C637.627733 262.7072 613.393067 273.066667 585.386667 273.066667z m0-170.666667c-18.8928 0-34.833067 6.519467-48.708267 19.950933-13.021867 13.482667-19.5584 29.422933-19.5584 48.315734 0 18.7904 6.468267 34.372267 19.746133 47.6672C550.741333 232.192 566.596267 238.933333 585.386667 238.933333c18.670933 0 34.2016-6.673067 47.4624-20.394666 14.1312-13.687467 20.804267-29.201067 20.804266-47.872 0-18.7904-6.741333-34.645333-20.599466-48.520534C619.758933 108.8512 604.16 102.4 585.386667 102.4zM710.775467 972.8a34.133333 34.133333 0 0 1-33.672534-28.808533c-15.9744-101.2224-63.402667-195.037867-141.2096-279.569067-29.934933 101.6832-76.1856 199.9872-137.949866 293.12a34.133333 34.133333 0 0 1-56.8832-37.717333c68.949333-103.970133 117.248-214.545067 143.530666-328.686934l0.221867-0.955733a1000.430933 1000.430933 0 0 0 22.664533-207.479467c-74.120533 19.7632-127.470933 66.730667-162.389333 142.711467a34.1504 34.1504 0 0 1-62.037333-28.5184c50.432-109.704533 135.543467-173.4144 252.996266-189.320533a34.2016 34.2016 0 0 1 37.8368 24.388266l0.221867 0.768c24.9856 94.7712 74.7008 160.8704 151.944533 202.052267a34.116267 34.116267 0 1 1-32.1024 60.228267c-50.312533-26.811733-91.630933-62.993067-123.716266-108.202667a1046.698667 1046.698667 0 0 1-14.916267 99.720533c105.454933 102.365867 169.079467 218.948267 189.269333 346.811734A34.133333 34.133333 0 0 1 710.775467 972.8z" p-id="4013" fill="#ffffff"></path></svg>